<svg xmlns="http://www.w3.org/2000/svg" viewBox="0 0 500 500" width="300" height="300">
    <!-- Книга -->
    <path d="M100 350 Q150 300 250 350 Q350 300 400 350 L400 380 Q350 330 250 380 Q150 330 100 380 Z" fill="#1E73BE"/>
    <!-- Глобус -->
    <circle cx="250" cy="230" r="70" stroke="#1E73BE" stroke-width="10" fill="none"/>
    <path d="M250 160 A70 70 0 0 1 250 300
           M180 230 H320
           M210 170 A100 100 0 0 0 210 290
           M290 170 A100 100 0 0 1 290 290"
          stroke="#1E73BE" stroke-width="6" fill="none"/>
    <!-- Шапочка -->
    <polygon points="250,120 180,150 250,180 320,150" fill="#1E73BE"/>
    <line x1="320" y1="150" x2="360" y2="180" stroke="#1E73BE" stroke-width="6"/>
    <circle cx="360" cy="180" r="8" fill="#1E73BE"/>
    <!-- Текст -->
    <text x="250" y="460" font-family="Arial, sans-serif" font-size="48" fill="#1E73BE" text-anchor="middle">
        Zyvera
    </text>
</svg>
